Coordinates
version=1
nRows=27
nColumns=38
inDegrees=no

Units are S.I. units (second, meters, Newtons, ...)
If the header above contains a line with 'inDegrees', this indicates whether rotational values are in degrees (yes) or radians (no).

endheader
time	pelvis_tilt	pelvis_list	pelvis_rotation	pelvis_tx	pelvis_ty	pelvis_tz	hip_flexion_r	hip_adduction_r	hip_rotation_r	knee_angle_r	ankle_angle_r	subtalar_angle_r	mtp_angle_r	hip_flexion_l	hip_adduction_l	hip_rotation_l	knee_angle_l	ankle_angle_l	subtalar_angle_l	mtp_angle_l	lumbar_extension	lumbar_bending	lumbar_rotation	arm_flex_r	arm_add_r	arm_rot_r	elbow_flex_r	pro_sup_r	wrist_flex_r	wrist_dev_r	arm_flex_l	arm_add_l	arm_rot_l	elbow_flex_l	pro_sup_l	wrist_flex_l	wrist_dev_l
0.1	0.023953	0.0300504	-0.0473678	0.767016	0.990465	-0.394304	0.578665	0.0133364	-0.0840097	-0.465868	0.12489	-0.0715466	-0.00596628	-0.358732	0.138602	0.0367075	-1.25735	-0.280162	0.1	-0.0304246	-0.386121	0.0147118	-0.290894	-0.744341	-0.591227	-0.347461	1.75916	1.4082	0.0999996	0.0799179	-0.24594	-0.513458	0.0704826	2.32113	1.65774	0.041587	-0.0936917
0.108333	0.041049	0.0302609	-0.054282	0.767258	0.987324	-0.392975	0.556205	0.0178923	-0.0708495	-0.470047	0.0882515	-0.0715466	-0.00596628	-0.352341	0.113253	-0.0135658	-1.3795	-0.259963	0.1	-0.0304246	-0.405513	0.0132706	-0.277853	-0.726737	-0.594543	-0.351644	1.76177	1.40533	0.0999996	0.0799179	-0.279853	-0.495593	0.0732818	2.27098	1.58844	0.041587	-0.0936917
0.116667	0.0564545	0.0280577	-0.0613479	0.767076	0.983603	-0.391736	0.537146	0.0255352	-0.0573823	-0.490627	0.0643582	-0.0715466	-0.00596628	-0.34003	0.0884039	-0.0565492	-1.49956	-0.236415	0.1	-0.0304246	-0.424164	0.0140534	-0.26155	-0.703718	-0.596908	-0.353438	1.76519	1.40431	0.0999996	0.0799179	-0.31095	-0.477638	0.0730896	2.21837	1.53712	0.041587	-0.0936917
0.125	0.0701317	0.0234772	-0.0685828	0.766498	0.979339	-0.390569	0.521353	0.0362109	-0.0436432	-0.527137	0.0533766	-0.0715466	-0.00596628	-0.321695	0.0641511	-0.0922414	-1.61743	-0.209614	0.1	-0.0304246	-0.44203	0.0170173	-0.241995	-0.675269	-0.598293	-0.352831	1.76941	1.40523	0.0999996	0.0799179	-0.339226	-0.459603	0.0699132	2.16338	1.50416	0.041587	-0.0936917
0.133333	0.0819741	0.0166423	-0.0760393	0.765535	0.974644	-0.389473	0.508373	0.0497243	-0.0297335	-0.578032	0.0555995	-0.0715466	-0.00596628	-0.29704	0.0407931	-0.120633	-1.73278	-0.179841	0.1	-0.0304246	-0.458976	0.0220148	-0.219233	-0.641363	-0.598605	-0.349773	1.77447	1.40826	0.0999996	0.0799179	-0.36469	-0.441526	0.0637703	2.10631	1.49072	0.041587	-0.0936917
0.141667	0.0918115	0.007798	-0.0838143	0.764196	0.969762	-0.388455	0.497266	0.0656679	-0.0158028	-0.640251	0.0710956	-0.0715466	-0.00596628	-0.265584	0.0188466	-0.141755	-1.84491	-0.147596	0.1	-0.0304246	-0.474753	0.0287491	-0.193379	-0.601986	-0.597673	-0.344159	1.78038	1.4137	0.0999996	0.0799179	-0.387408	-0.423484	0.0546972	2.04777	1.49875	0.041587	-0.0936917
0.15	0.099459	-0.00267105	-0.0920329	0.762515	0.965042	-0.387516	0.486533	0.0833851	-0.0019675	-0.709158	0.0992232	-0.0715466	-0.00596628	-0.226771	-0.00102715	-0.155752	-1.95263	-0.113578	0.1	-0.0304246	-0.489008	0.0367507	-0.164659	-0.557209	-0.595243	-0.33583	1.78718	1.42184	0.0999996	0.0799179	-0.407561	-0.405619	0.0427675	1.98874	1.53058	0.041587	-0.0936917
0.158333	0.104777	-0.014227	-0.10081	0.760562	0.960792	-0.386641	0.474207	0.101962	0.0117985	-0.778973	0.1383	-0.0715466	-0.00596628	-0.180168	-0.0181315	-0.162966	-2.05432	-0.0785988	0.1	-0.0304246	-0.501345	0.0453658	-0.13346	-0.507278	-0.590995	-0.324611	1.79494	1.43287	0.0999996	0.0799179	-0.425494	-0.388165	0.0281269	1.93061	1.58793	0.041587	-0.0936917
0.166667	0.107738	-0.0261411	-0.110201	0.758422	0.95717	-0.385813	0.458103	0.120239	0.0257303	-0.843589	0.185623	-0.0715466	-0.00596628	-0.125667	-0.0318338	-0.163993	-2.14794	-0.0434822	0.1	-0.0304246	-0.511383	0.0537583	-0.100355	-0.452738	-0.584578	-0.310389	1.80378	1.44673	0.0999996	0.0799179	-0.441728	-0.371479	0.0110451	1.87508	1.67084	0.041587	-0.0936917
0.175	0.108455	-0.0374714	-0.120154	0.756185	0.954226	-0.385021	0.43619	0.136828	0.0402318	-0.89751	0.237807	-0.0715466	-0.00596628	-0.0636184	-0.0416207	-0.159714	-2.23125	-0.0089706	0.1	-0.0304246	-0.518781	0.0609227	-0.0661014	-0.394533	-0.575653	-0.293212	1.81394	1.46309	0.0999996	0.0799179	-0.456929	-0.356066	-0.00803596	1.82409	1.77663	0.041587	-0.0936917
0.183333	0.107228	-0.0471432	-0.130468	0.75396	0.952005	-0.384253	0.406842	0.15021	0.0557408	-0.936547	0.29123	-0.0715466	-0.00596628	0.00506371	-0.0471781	-0.151277	-2.30201	0.0242924	0.1	-0.0304246	-0.523307	0.0657764	-0.0315711	-0.334046	-0.563957	-0.273382	1.82573	1.4813	0.0999996	0.0799179	-0.471809	-0.342569	-0.0284741	1.77963	1.89936	0.041587	-0.0936917
0.191667	0.104533	-0.0540653	-0.140791	0.751892	0.950579	-0.383486	0.369032	0.158877	0.0725386	-0.958159	0.342365	-0.0715466	-0.00596628	0.0789308	-0.048453	-0.140057	-2.35824	0.055738	0.1	-0.0304246	-0.524873	0.0673053	0.00237114	-0.273043	-0.549385	-0.251485	1.8396	1.50052	0.0999996	0.0799179	-0.487004	-0.331734	-0.04945	1.7435	2.02999	0.041587	-0.0936917
0.2	0.100925	-0.0572864	-0.15068	0.750148	0.950019	-0.382686	0.322426	0.161523	0.0905771	-0.961434	0.387923	-0.0715466	-0.00596628	0.156153	-0.0456894	-0.127559	-2.39839	0.0848467	0.1	-0.0304246	-0.523507	0.064716	0.0350113	-0.213512	-0.532063	-0.228312	1.85604	1.51983	0.0999996	0.0799179	-0.502972	-0.324334	-0.0700554	1.71703	2.15724	0.041587	-0.0936917
0.208333	0.0969031	-0.0561483	-0.159686	0.748887	0.950351	-0.381815	0.267419	0.157228	0.109372	-0.946832	0.424808	-0.0715466	-0.00596628	0.234757	-0.0394229	-0.115312	-2.42154	0.111162	0.1	-0.0304246	-0.519292	0.0575546	0.065906	-0.157412	-0.512418	-0.20469	1.87547	1.53831	0.0999996	0.0799179	-0.519935	-0.321073	-0.0894395	1.7009	2.26933	0.041587	-0.0936917
0.216667	0.0927744	-0.0503553	-0.167464	0.74824	0.951534	-0.38086	0.205078	0.145601	0.127971	-0.915821	0.450041	-0.0715466	-0.00596628	0.312877	-0.0304235	-0.104718	-2.42744	0.134348	0.1	-0.0304246	-0.5123	0.0457809	0.0949347	-0.106421	-0.491179	-0.181266	1.89818	1.55518	0.0999996	0.0799179	-0.537896	-0.322483	-0.106965	1.69501	2.35598	0.041587	-0.0936917
0.225	0.0885843	-0.0400277	-0.173841	0.748297	0.953471	-0.37983	0.137038	0.126827	0.144985	-0.870537	0.460763	-0.0715466	-0.00596628	0.388935	-0.0195771	-0.0968974	-2.41651	0.154262	0.1	-0.0304246	-0.502541	0.0297517	0.122263	-0.0617186	-0.469333	-0.158334	1.92419	1.56984	0.0999996	0.0799179	-0.556705	-0.328844	-0.12231	1.69849	2.40998	0.041587	-0.0936917
0.233333	0.084142	-0.0256767	-0.178819	0.749098	0.956026	-0.378756	0.0653169	0.101644	0.158691	-0.813547	0.454409	-0.0715466	-0.00596628	0.461722	-0.00773515	-0.0925425	-2.38971	0.170991	0.1	-0.0304246	-0.489976	0.0101572	0.148234	-0.0238849	-0.448023	-0.135761	1.95326	1.58189	0.0999996	0.0799179	-0.576144	-0.340127	-0.135504	1.70997	2.42815	0.041587	-0.0936917
0.241667	0.0791224	-0.00813196	-0.182522	0.750625	0.959048	-0.377681	-0.0078926	0.0712462	0.167191	-0.747718	0.429061	-0.0715466	-0.00596628	0.530354	0.00441744	-0.0918072	-2.34839	0.184827	0.1	-0.0304246	-0.474594	-0.012066	0.173224	0.00709963	-0.428413	-0.11304	1.9849	1.59117	0.0999996	0.0799179	-0.596003	-0.355983	-0.14689	1.7277	2.41133	0.041587	-0.0936917
0.25	0.0732026	0.0115572	-0.185108	0.752804	0.962388	-0.376661	-0.0804478	0.0371749	0.168638	-0.676158	0.383896	-0.0715466	-0.00596628	0.594166	0.0164358	-0.0942739	-2.29411	0.196182	0.1	-0.0304246	-0.456513	-0.0358277	0.197506	0.0317472	-0.41156	-0.0894503	2.0184	1.59768	0.0999996	0.0799179	-0.616108	-0.375773	-0.157047	1.7499	2.36367	0.041587	-0.0936917
0.258333	0.0661856	0.0322312	-0.186687	0.755514	0.965901	-0.375755	-0.150439	0.00118286	0.161522	-0.602195	0.319607	-0.0715466	-0.00596628	0.652593	0.0281091	-0.099018	-2.22842	0.205504	0.1	-0.0304246	-0.436066	-0.0599738	0.221161	0.0508988	-0.398299	-0.0642745	2.05303	1.60166	0.0999996	0.0799179	-0.636312	-0.398634	-0.166697	1.7749	2.29153	0.041587	-0.0936917
0.266667	0.058069	0.0527347	-0.187282	0.758601	0.969459	-0.375016	-0.216311	-0.0348925	0.144979	-0.529331	0.238671	-0.0715466	-0.00596628	0.705077	0.0393808	-0.104767	-2.15275	0.21322	0.1	-0.0304246	-0.413843	-0.0833654	0.244065	0.0655376	-0.389166	-0.0369979	2.08803	1.60358	0.0999996	0.0799179	-0.656444	-0.42358	-0.176606	1.80132	2.20232	0.041587	-0.0936917
0.275	0.0490471	0.0719802	-0.186822	0.761904	0.972955	-0.37448	-0.276895	-0.0692592	0.119095	-0.461168	0.145344	-0.0715466	-0.00596628	0.751044	0.050237	-0.110129	-2.06833	0.219725	0.1	-0.0304246	-0.39064	-0.104968	0.265921	0.0766181	-0.384356	-0.00744984	2.12275	1.60414	0.0999996	0.0799179	-0.676269	-0.449609	-0.187513	1.82815	2.10355	0.041587	-0.0936917
0.283333	0.0394368	0.0890148	-0.185178	0.765269	0.976301	-0.374152	-0.331378	-0.100281	0.0851204	-0.401283	0.0453393	-0.0715466	-0.00596628	0.789927	0.0605971	-0.113831	-1.97613	0.225392	0.1	-0.0304246	-0.367357	-0.123918	0.286344	0.0849326	-0.38372	0.0241507	2.15666	1.60428	0.0999996	0.0799179	-0.69546	-0.475806	-0.20006	1.85473	2.00201	0.041587	-0.0936917
0.291667	0.0295817	0.103082	-0.182209	0.768559	0.97942	-0.374006	-0.379216	-0.126563	0.0455401	-0.353069	-0.0547881	-0.0715466	-0.00596628	0.821249	0.0702436	-0.114936	-1.87691	0.230572	0.1	-0.0304246	-0.344865	-0.139574	0.304924	0.0910352	-0.386794	0.0572426	2.18929	1.60505	0.0999996	0.0799179	-0.713606	-0.501414	-0.214767	1.88072	1.90325	0.041587	-0.0936917
0.3	0.0197688	0.11366	-0.177799	0.771661	0.982245	-0.373985	-0.420025	-0.147022	0.00390597	-0.319569	-0.148459	-0.0715466	-0.00596628	0.844689	0.0788116	-0.112978	-1.77132	0.235546	0.1	-0.0304246	-0.32388	-0.151549	0.321282	0.0952226	-0.392857	0.0910386	2.22023	1.60748	0.0999996	0.0799179	-0.730259	-0.52587	-0.232027	1.90603	1.81137	0.041587	-0.0936917
0.308333	0.0101933	0.120485	-0.171888	0.774491	0.984718	-0.374008	-0.45351	-0.16094	-0.0356127	-0.303303	-0.229936	-0.0715466	-0.00596628	0.860142	0.0858436	-0.10801	-1.65998	0.240455	0.1	-0.0304246	-0.304891	-0.159725	0.335079	0.0975645	-0.40101	0.12467	2.24905	1.61231	0.0999996	0.0799179	-0.744992	-0.548797	-0.252111	1.93079	1.72882	0.041587	-0.0936917
0.316667	0.000981296	0.123559	-0.164477	0.777004	0.98679	-0.373987	-0.47945	-0.168015	-0.0689279	-0.306102	-0.295073	-0.0715466	-0.00596628	0.867715	0.0908995	-0.100566	-1.54362	0.245227	0.1	-0.0304246	-0.288169	-0.164261	0.34601	0.097962	-0.410272	0.157311	2.27522	1.61982	0.0999996	0.0799179	-0.75746	-0.569983	-0.275183	1.95526	1.65656	0.041587	-0.0936917
